<mxfile host="Electron" modified="2023-12-05T05:40:10.814Z" agent="Mozilla/5.0 (Windows NT 10.0; Win64; x64) AppleWebKit/537.36 (KHTML, like Gecko) draw.io/22.1.2 Chrome/114.0.5735.289 Electron/25.9.4 Safari/537.36" etag="wGUpaWiwn6_kLZCpv-uE" version="22.1.2" type="device">
  <diagram id="JRV1S1hfmetVSMpoenYW" name="Page-2">
    <mxGraphModel dx="1138" dy="535" grid="1" gridSize="10" guides="1" tooltips="1" connect="1" arrows="1" fold="1" page="1" pageScale="1" pageWidth="850" pageHeight="1100" math="0" shadow="0">
      <root>
        <mxCell id="0" />
        <mxCell id="1" parent="0" />
        <mxCell id="HVDK6gXEd9wGBxcKgLai-12" style="edgeStyle=orthogonalEdgeStyle;rounded=0;orthogonalLoop=1;jettySize=auto;html=1;entryX=0;entryY=0.5;entryDx=0;entryDy=0;entryPerimeter=0;" parent="1" source="HVDK6gXEd9wGBxcKgLai-1" target="HVDK6gXEd9wGBxcKgLai-4" edge="1">
          <mxGeometry relative="1" as="geometry" />
        </mxCell>
        <mxCell id="HVDK6gXEd9wGBxcKgLai-1" value="" style="rounded=0;whiteSpace=wrap;html=1;" parent="1" vertex="1">
          <mxGeometry x="400" y="360" width="200" height="120" as="geometry" />
        </mxCell>
        <mxCell id="HVDK6gXEd9wGBxcKgLai-3" value="" style="html=1;dashed=0;whiteSpace=wrap;shape=mxgraph.dfd.start;fillColor=#d5e8d4;strokeColor=#82b366;gradientColor=#97d077;" parent="1" vertex="1">
          <mxGeometry x="430" y="130" width="150" height="60" as="geometry" />
        </mxCell>
        <mxCell id="HVDK6gXEd9wGBxcKgLai-4" value="" style="html=1;dashed=0;whiteSpace=wrap;shape=mxgraph.dfd.start;fillColor=#d5e8d4;gradientColor=#97d077;strokeColor=#82b366;" parent="1" vertex="1">
          <mxGeometry x="760" y="390" width="150" height="60" as="geometry" />
        </mxCell>
        <mxCell id="HVDK6gXEd9wGBxcKgLai-5" value="" style="html=1;dashed=0;whiteSpace=wrap;shape=mxgraph.dfd.start;fillColor=#d5e8d4;gradientColor=#97d077;strokeColor=#82b366;" parent="1" vertex="1">
          <mxGeometry x="430" y="640" width="150" height="60" as="geometry" />
        </mxCell>
        <mxCell id="HVDK6gXEd9wGBxcKgLai-14" style="edgeStyle=orthogonalEdgeStyle;rounded=0;orthogonalLoop=1;jettySize=auto;html=1;entryX=0;entryY=0.5;entryDx=0;entryDy=0;" parent="1" source="HVDK6gXEd9wGBxcKgLai-7" target="HVDK6gXEd9wGBxcKgLai-1" edge="1">
          <mxGeometry relative="1" as="geometry" />
        </mxCell>
        <mxCell id="HVDK6gXEd9wGBxcKgLai-7" value="" style="html=1;dashed=0;whiteSpace=wrap;shape=mxgraph.dfd.start;fillColor=#d5e8d4;strokeColor=#82b366;gradientColor=#97d077;" parent="1" vertex="1">
          <mxGeometry x="90" y="390" width="150" height="60" as="geometry" />
        </mxCell>
        <mxCell id="HVDK6gXEd9wGBxcKgLai-11" style="edgeStyle=orthogonalEdgeStyle;rounded=0;orthogonalLoop=1;jettySize=auto;html=1;entryX=0.5;entryY=0;entryDx=0;entryDy=0;" parent="1" target="HVDK6gXEd9wGBxcKgLai-1" edge="1">
          <mxGeometry relative="1" as="geometry">
            <mxPoint x="499.41" y="350" as="targetPoint" />
            <mxPoint x="499.41" y="190" as="sourcePoint" />
            <Array as="points">
              <mxPoint x="499" y="350" />
            </Array>
          </mxGeometry>
        </mxCell>
        <mxCell id="HVDK6gXEd9wGBxcKgLai-8" value="Customer" style="text;html=1;strokeColor=none;fillColor=none;align=center;verticalAlign=middle;whiteSpace=wrap;rounded=0;" parent="1" vertex="1">
          <mxGeometry x="440" y="145" width="130" height="30" as="geometry" />
        </mxCell>
        <mxCell id="HVDK6gXEd9wGBxcKgLai-10" style="edgeStyle=orthogonalEdgeStyle;rounded=0;orthogonalLoop=1;jettySize=auto;html=1;entryX=1;entryY=0.5;entryDx=0;entryDy=0;entryPerimeter=0;" parent="1" target="HVDK6gXEd9wGBxcKgLai-3" edge="1">
          <mxGeometry relative="1" as="geometry">
            <mxPoint x="835" y="170" as="targetPoint" />
            <mxPoint x="850" y="390" as="sourcePoint" />
            <Array as="points">
              <mxPoint x="850" y="160" />
            </Array>
          </mxGeometry>
        </mxCell>
        <mxCell id="HVDK6gXEd9wGBxcKgLai-9" value="Canada Post" style="text;html=1;strokeColor=none;fillColor=none;align=center;verticalAlign=middle;whiteSpace=wrap;rounded=0;" parent="1" vertex="1">
          <mxGeometry x="770" y="405" width="130" height="30" as="geometry" />
        </mxCell>
        <mxCell id="HVDK6gXEd9wGBxcKgLai-15" style="edgeStyle=orthogonalEdgeStyle;rounded=0;orthogonalLoop=1;jettySize=auto;html=1;entryX=0.389;entryY=1.021;entryDx=0;entryDy=0;entryPerimeter=0;exitX=0.316;exitY=-0.015;exitDx=0;exitDy=0;exitPerimeter=0;" parent="1" source="HVDK6gXEd9wGBxcKgLai-5" target="HVDK6gXEd9wGBxcKgLai-1" edge="1">
          <mxGeometry relative="1" as="geometry">
            <Array as="points">
              <mxPoint x="477" y="638" />
              <mxPoint x="478" y="638" />
            </Array>
          </mxGeometry>
        </mxCell>
        <mxCell id="HVDK6gXEd9wGBxcKgLai-16" style="edgeStyle=orthogonalEdgeStyle;rounded=0;orthogonalLoop=1;jettySize=auto;html=1;entryX=0.696;entryY=-0.019;entryDx=0;entryDy=0;entryPerimeter=0;exitX=0.671;exitY=1.007;exitDx=0;exitDy=0;exitPerimeter=0;" parent="1" source="HVDK6gXEd9wGBxcKgLai-19" target="HVDK6gXEd9wGBxcKgLai-5" edge="1">
          <mxGeometry relative="1" as="geometry" />
        </mxCell>
        <mxCell id="HVDK6gXEd9wGBxcKgLai-17" value="Administration/&lt;br&gt;Police Department" style="text;html=1;strokeColor=none;fillColor=none;align=center;verticalAlign=middle;whiteSpace=wrap;rounded=0;" parent="1" vertex="1">
          <mxGeometry x="440" y="655" width="130" height="30" as="geometry" />
        </mxCell>
        <mxCell id="HVDK6gXEd9wGBxcKgLai-18" value="Passport Office Employees" style="text;html=1;strokeColor=none;fillColor=none;align=center;verticalAlign=middle;whiteSpace=wrap;rounded=0;" parent="1" vertex="1">
          <mxGeometry x="100" y="405" width="130" height="30" as="geometry" />
        </mxCell>
        <mxCell id="HVDK6gXEd9wGBxcKgLai-19" value="&lt;b style=&quot;font-size: 17px;&quot;&gt;PASSPORT AUTOMATION&lt;br&gt;PROCESS&lt;/b&gt;" style="text;html=1;strokeColor=#6c8ebf;fillColor=#dae8fc;align=center;verticalAlign=middle;whiteSpace=wrap;rounded=0;gradientColor=#7ea6e0;" parent="1" vertex="1">
          <mxGeometry x="400" y="360" width="200" height="120" as="geometry" />
        </mxCell>
        <mxCell id="HVDK6gXEd9wGBxcKgLai-20" value="Login ID &lt;br&gt;Password" style="text;html=1;strokeColor=none;fillColor=none;align=center;verticalAlign=middle;whiteSpace=wrap;rounded=0;" parent="1" vertex="1">
          <mxGeometry x="400" y="250" width="130" height="30" as="geometry" />
        </mxCell>
        <mxCell id="HVDK6gXEd9wGBxcKgLai-21" value="Printed Passport" style="text;html=1;strokeColor=none;fillColor=none;align=center;verticalAlign=middle;whiteSpace=wrap;rounded=0;" parent="1" vertex="1">
          <mxGeometry x="620" y="390" width="130" height="30" as="geometry" />
        </mxCell>
        <mxCell id="HVDK6gXEd9wGBxcKgLai-24" value="Delivery of Passport" style="text;html=1;strokeColor=none;fillColor=none;align=center;verticalAlign=middle;whiteSpace=wrap;rounded=0;" parent="1" vertex="1">
          <mxGeometry x="690" y="160" width="130" height="30" as="geometry" />
        </mxCell>
        <mxCell id="HVDK6gXEd9wGBxcKgLai-25" value="Application to be Verified" style="text;html=1;strokeColor=none;fillColor=none;align=center;verticalAlign=middle;whiteSpace=wrap;rounded=0;" parent="1" vertex="1">
          <mxGeometry x="530" y="550" width="130" height="30" as="geometry" />
        </mxCell>
        <mxCell id="HVDK6gXEd9wGBxcKgLai-26" value="Verified Application" style="text;html=1;strokeColor=none;fillColor=none;align=center;verticalAlign=middle;whiteSpace=wrap;rounded=0;" parent="1" vertex="1">
          <mxGeometry x="350" y="550" width="130" height="30" as="geometry" />
        </mxCell>
        <mxCell id="HVDK6gXEd9wGBxcKgLai-27" value="Employee ID &lt;br&gt;Password" style="text;html=1;strokeColor=none;fillColor=none;align=center;verticalAlign=middle;whiteSpace=wrap;rounded=0;" parent="1" vertex="1">
          <mxGeometry x="260" y="390" width="130" height="30" as="geometry" />
        </mxCell>
      </root>
    </mxGraphModel>
  </diagram>
</mxfile>
